<svg xmlns="http://www.w3.org/2000/svg" xmlns:xlink="http://www.w3.org/1999/xlink" version="1.1" x="0px" y="0px" viewBox="0 0 512 512" width="512" height="512">
  <g transform="matrix(-1 0 0 1 512 0)">
    <path style="fill:#A9C7BF" d="M439.604,183.652v133.565c0,9.238-7.346,16.696-16.584,16.696h-66.783L256.063,200.125  l-81.697-109.19l-33.391-66.783C135.409,13.134,143.423,0,155.889,0h100.174C357.349,0,439.604,82.365,439.604,183.652z" data-original="#5D5F66"></path>
    <path style="fill:#6C9792" d="M439.604,183.652v133.565c0,9.238-7.346,16.696-16.584,16.696h-66.783L256.063,200.125V0  C357.349,0,439.604,82.365,439.604,183.652z" data-original="#55575C"></path>
    <path style="fill:#92B7B2" d="M256.063,66.783H189.28c-5.231,0-10.24,2.449-13.357,6.678L75.75,207.026  c-5.009,6.678-4.341,15.917,1.558,21.816l33.391,33.391c4.452,4.452,11.13,6.01,17.03,4.007l78.247-26.045v29.83  c0,4.341-1.781,8.682-4.897,11.798l-37.398,37.398c-15.805,15.805-24.487,36.73-24.487,59.103v50.198  c0,9.238,7.457,16.696,16.696,16.696h200.348c9.238,0,16.584-7.457,16.584-16.696v-244.87  C372.821,119.207,320.507,66.783,256.063,66.783z" data-original="#7F8189"></path>
    <path style="fill:#85AFAA" d="M372.821,183.652v244.87c0,9.238-7.346,16.696-16.584,16.696H256.063V66.783  C320.507,66.783,372.821,119.207,372.821,183.652z" data-original="#757880"></path>
    <g>
      <circle style="fill:#A9C7BF" cx="222.675" cy="150.261" r="16.696" data-original="#5D5F66"></circle>
      <path style="fill:#A9C7BF" d="M356.237,411.826H155.889c-27.603,0-50.087,22.483-50.087,50.087v33.391  c0,9.238,7.457,16.696,16.696,16.696h267.13c9.238,0,16.584-7.457,16.584-16.696v-33.391   C406.213,434.31,383.84,411.826,356.237,411.826z" data-original="#5D5F66"></path>
    </g>
    <path style="fill:#6C9792" d="M406.213,461.913v33.391c0,9.238-7.346,16.696-16.584,16.696H256.063V411.826h100.174  C383.84,411.826,406.213,434.31,406.213,461.913z" data-original="#55575C"></path>
  </g>
</svg>
